<?xml version="1.0" encoding="iso-8859-1"?>
<!-- Generator: Adobe Illustrator 19.0.0, SVG Export Plug-In . SVG Version: 6.00 Build 0)  -->
<svg version="1.1" id="Layer_1" xmlns="http://www.w3.org/2000/svg" xmlns:xlink="http://www.w3.org/1999/xlink" x="0px" y="0px"
	 viewBox="0 0 512 512" style="enable-background:new 0 0 512 512;" xml:space="preserve">
<g transform="translate(1 1)">
	<path style="fill:#FFA800;" d="M502.467,245.341c0,23.893-18.773,42.667-42.667,42.667c-23.893,0-42.667-18.773-42.667-42.667
		s18.773-42.667,42.667-42.667C483.693,202.675,502.467,221.448,502.467,245.341"/>
	<g>
		<path style="fill:#FFE100;" d="M476.867,245.341c0,23.893-13.653,42.667-29.867,42.667s-29.867-18.773-29.867-42.667
			s13.653-42.667,29.867-42.667S476.867,221.448,476.867,245.341"/>
		<path style="fill:#FFE100;" d="M451.267,211.208c-5.12,0-8.533-3.413-8.533-8.533V83.208c0-5.12,3.413-8.533,8.533-8.533
			s8.533,3.413,8.533,8.533v119.467C459.8,207.795,456.387,211.208,451.267,211.208z"/>
		<path style="fill:#FFE100;" d="M414.573,51.635L237.08,237.661l11.093,50.347h15.36L453.827,89.181
			c11.093-11.947,9.387-29.867-2.56-40.107l0,0C440.173,40.541,423.96,41.395,414.573,51.635"/>
		<path style="fill:#FFE100;" d="M365.933,467.208H41.667c-18.773,0-34.133-15.36-34.133-34.133l0,0
			c0-18.773,15.36-34.133,34.133-34.133h324.267c18.773,0,34.133,15.36,34.133,34.133l0,0
			C400.067,451.848,384.707,467.208,365.933,467.208"/>
		<path style="fill:#FFE100;" d="M217.453,145.501c-2.56-11.093-12.8-19.627-24.747-19.627H101.4c-14.507,0-25.6,11.093-25.6,25.6
			v136.533h110.933h62.293L217.453,145.501z"/>
	</g>
	<path style="fill:#FFFFFF;" d="M101.4,125.875H75.8c-14.507,0-25.6,11.093-25.6,25.6v136.533h25.6V151.475
		C75.8,136.968,86.893,125.875,101.4,125.875"/>
	<path style="fill:#FFE100;" d="M340.333,288.008H75.8v110.933h215.893h7.68h15.36c4.267,0,7.68-2.56,9.387-6.827l25.6-86.187
		C353.133,297.395,348.013,288.008,340.333,288.008"/>
	<path style="fill:#FFFFFF;" d="M50.2,398.941h25.6V288.008H50.2V398.941z"/>
	<path style="fill:#FFA800;" d="M364.227,288.008h-23.893c7.68,0,12.8,9.387,9.387,17.92l-25.6,86.187
		c-1.707,4.267-5.12,6.827-9.387,6.827l0,0h18.773c4.267,0,9.387-2.56,11.093-6.827l30.72-86.187
		C378.733,297.395,372.76,288.008,364.227,288.008"/>
	<path style="fill:#FFFFFF;" d="M75.8,433.075c0,18.773-15.36,34.133-34.133,34.133s-34.133-15.36-34.133-34.133
		s15.36-34.133,34.133-34.133S75.8,414.301,75.8,433.075"/>
	<path style="fill:#FECC00;" d="M75.8,433.075c0,18.773-9.387,34.133-21.333,34.133s-21.333-15.36-21.333-34.133
		s9.387-34.133,21.333-34.133S75.8,414.301,75.8,433.075"/>
	<path style="fill:#FFA800;" d="M400.067,433.075c0,18.773-15.36,34.133-34.133,34.133s-34.133-15.36-34.133-34.133
		s15.36-34.133,34.133-34.133S400.067,414.301,400.067,433.075"/>
	<g>
		<path style="fill:#FECC00;" d="M374.467,433.075c0,18.773-9.387,34.133-21.333,34.133c-11.947,0-21.333-15.36-21.333-34.133
			s9.387-34.133,21.333-34.133C365.08,398.941,374.467,414.301,374.467,433.075"/>
		<path style="fill:#FECC00;" d="M135.533,74.675c-13.653,0-25.6,11.093-25.6,25.6v25.6h51.2v-25.6
			C161.133,85.768,149.187,74.675,135.533,74.675"/>
	</g>
	<path style="fill:#63D3FD;" d="M175.64,236.808H101.4c-5.12,0-8.533-3.413-8.533-8.533v-42.667c0-5.12,3.413-8.533,8.533-8.533
		h61.44c3.413,0,6.827,2.56,8.533,5.973l11.947,42.667C185.027,231.688,180.76,236.808,175.64,236.808"/>
	<path d="M259.267,296.541h-217.6V151.475c0-18.773,15.36-34.133,34.133-34.133h116.053c16.213,0,29.867,11.093,33.28,26.453l0,0
		L259.267,296.541z M58.733,279.475h179.2l-29.867-131.413l0,0c-1.707-7.68-8.533-13.653-17.067-13.653H75.8
		c-9.387,0-17.067,7.68-17.067,17.067V279.475z"/>
	<path d="M333.507,407.475H41.667v-128h322.56c7.68,0,13.653,3.413,17.92,10.24c3.413,5.973,4.267,13.653,0.853,19.627l-30.72,87.04
		C348.867,403.208,341.187,407.475,333.507,407.475z M58.733,390.408h274.773c1.707,0,2.56-0.853,3.413-1.707l30.72-86.187
		c0.853-1.707,0-3.413,0-3.413c0-0.853-1.707-1.707-3.413-1.707H58.733V390.408z"/>
	<path d="M175.64,245.341H101.4c-9.387,0-17.067-7.68-17.067-17.067v-42.667c0-9.387,7.68-17.067,17.067-17.067h61.44
		c7.68,0,14.507,5.12,16.213,11.947L191,223.155c1.707,5.12,0.853,10.24-2.56,15.36C185.88,242.781,180.76,245.341,175.64,245.341z
		 M162.84,185.608H101.4v42.667h74.24L162.84,185.608z"/>
	<path d="M195.267,330.675H50.2c-5.12,0-8.533-3.413-8.533-8.533c0-5.12,3.413-8.533,8.533-8.533h145.067
		c5.12,0,8.533,3.413,8.533,8.533C203.8,327.261,200.387,330.675,195.267,330.675z"/>
	<path d="M246.467,364.808H50.2c-5.12,0-8.533-3.413-8.533-8.533c0-5.12,3.413-8.533,8.533-8.533h196.267
		c5.12,0,8.533,3.413,8.533,8.533C255,361.395,251.587,364.808,246.467,364.808z"/>
	<path d="M263.533,296.541h-14.507c-4.267,0-7.68-2.56-8.533-6.827L229.4,239.368c-0.853-2.56,0-5.973,2.56-7.68L407.747,45.661
		c12.8-13.653,34.133-15.36,48.64-3.413c7.68,5.973,12.8,15.36,13.653,25.6c0.853,10.24-2.56,19.627-9.387,27.307L269.507,293.981
		C267.8,295.688,265.24,296.541,263.533,296.541z M255.853,279.475h4.267L447.853,83.208c3.413-3.413,5.12-8.533,5.12-13.653
		c0-5.12-2.56-10.24-6.827-12.8c-7.68-5.973-18.773-5.12-25.6,1.707l0,0l-174.08,181.76L255.853,279.475z"/>
	<path d="M365.933,475.741H41.667C17.773,475.741-1,456.968-1,433.075s18.773-42.667,42.667-42.667h324.267
		c23.893,0,42.667,18.773,42.667,42.667S389.827,475.741,365.933,475.741z M41.667,407.475c-14.507,0-25.6,11.093-25.6,25.6
		s11.093,25.6,25.6,25.6h324.267c14.507,0,25.6-11.093,25.6-25.6s-11.093-25.6-25.6-25.6H41.667z"/>
	<path d="M127,433.075c0,5.12-3.413,8.533-8.533,8.533s-8.533-3.413-8.533-8.533s3.413-8.533,8.533-8.533S127,427.955,127,433.075"
		/>
	<path d="M169.667,433.075c0,5.12-3.413,8.533-8.533,8.533c-5.12,0-8.533-3.413-8.533-8.533s3.413-8.533,8.533-8.533
		C166.253,424.541,169.667,427.955,169.667,433.075"/>
	<path d="M212.333,433.075c0,5.12-3.413,8.533-8.533,8.533c-5.12,0-8.533-3.413-8.533-8.533s3.413-8.533,8.533-8.533
		C208.92,424.541,212.333,427.955,212.333,433.075"/>
	<path d="M255,433.075c0,5.12-3.413,8.533-8.533,8.533c-5.12,0-8.533-3.413-8.533-8.533s3.413-8.533,8.533-8.533
		C251.587,424.541,255,427.955,255,433.075"/>
	<path d="M297.667,433.075c0,5.12-3.413,8.533-8.533,8.533c-5.12,0-8.533-3.413-8.533-8.533s3.413-8.533,8.533-8.533
		C294.253,424.541,297.667,427.955,297.667,433.075"/>
	<path d="M169.667,134.408H101.4v-34.133c0-18.773,15.36-34.133,34.133-34.133s34.133,15.36,34.133,34.133V134.408z
		 M118.467,117.341H152.6v-17.067c0-9.387-7.68-17.067-17.067-17.067s-17.067,7.68-17.067,17.067V117.341z"/>
	<path d="M459.8,211.208c-5.12,0-8.533-3.413-8.533-8.533V83.208c0-5.12,3.413-8.533,8.533-8.533s8.533,3.413,8.533,8.533v119.467
		C468.333,207.795,464.92,211.208,459.8,211.208z"/>
	<path d="M459.8,296.541c-28.16,0-51.2-23.04-51.2-51.2s23.04-51.2,51.2-51.2s51.2,23.04,51.2,51.2S487.96,296.541,459.8,296.541z
		 M459.8,211.208c-18.773,0-34.133,15.36-34.133,34.133c0,18.773,15.36,34.133,34.133,34.133s34.133-15.36,34.133-34.133
		C493.933,226.568,478.573,211.208,459.8,211.208z"/>
	<path d="M41.667,475.741C17.773,475.741-1,456.968-1,433.075s18.773-42.667,42.667-42.667s42.667,18.773,42.667,42.667
		S65.56,475.741,41.667,475.741z M41.667,407.475c-14.507,0-25.6,11.093-25.6,25.6s11.093,25.6,25.6,25.6s25.6-11.093,25.6-25.6
		S56.173,407.475,41.667,407.475z"/>
	<path d="M365.933,475.741c-23.893,0-42.667-18.773-42.667-42.667s18.773-42.667,42.667-42.667
		c23.893,0,42.667,18.773,42.667,42.667S389.827,475.741,365.933,475.741z M365.933,407.475c-14.507,0-25.6,11.093-25.6,25.6
		s11.093,25.6,25.6,25.6s25.6-11.093,25.6-25.6S380.44,407.475,365.933,407.475z"/>
</g>
<g>
</g>
<g>
</g>
<g>
</g>
<g>
</g>
<g>
</g>
<g>
</g>
<g>
</g>
<g>
</g>
<g>
</g>
<g>
</g>
<g>
</g>
<g>
</g>
<g>
</g>
<g>
</g>
<g>
</g>
</svg>
