<svg height="512" viewBox="0 0 64 64" width="512" xmlns="http://www.w3.org/2000/svg"><path d="m61 43v18h-18v-12.3-2.4-9.3h8.37 3.63v6z" fill="#ffeb99"/><path d="m61 17v12h-16v-12a1.087 1.087 0 0 1 .01-.18 2 2 0 0 1 1.99-1.82h12a2.006 2.006 0 0 1 2 2z" fill="#ff3051"/><path d="m61 43h-6v-6z" fill="#ff9811"/><circle cx="53" cy="9" fill="#ffc477" r="6"/><path d="m52 32h-12a43.439 43.439 0 0 0 -1.36-11.14 19.881 19.881 0 0 0 6.36-3.67v11.81h6.77a19.8 19.8 0 0 1 .23 3z" fill="#2488ff"/><path d="m40 32h12a20.148 20.148 0 0 1 -.63 5h-8.37v9.3a19.777 19.777 0 0 0 -4.62-2.25 42.59 42.59 0 0 0 1.62-12.05z" fill="#9bc9ff"/><path d="m45.01 16.82a1.087 1.087 0 0 0 -.01.18v.19a19.881 19.881 0 0 1 -6.36 3.67c-1.43-5.35-3.87-8.86-6.64-8.86a19.922 19.922 0 0 1 13.01 4.82z" fill="#9bc9ff"/><path d="m43 46.3v2.4a19.867 19.867 0 0 1 -11 3.3c2.61 0 4.92-3.12 6.38-7.95a19.777 19.777 0 0 1 4.62 2.25z" fill="#2488ff"/><path d="m40 32h-16q0-1.53.09-3h2.91a2.006 2.006 0 0 0 2-2v-5.22a21.075 21.075 0 0 0 3 .22 19.7 19.7 0 0 0 6.64-1.14 43.439 43.439 0 0 1 1.36 11.14z" fill="#9bc9ff"/><path d="m24 32h16a42.59 42.59 0 0 1 -1.62 12.05 19.8 19.8 0 0 0 -6.38-1.05 19.491 19.491 0 0 0 -6.38 1.05 42.59 42.59 0 0 1 -1.62-12.05z" fill="#2488ff"/><path d="m32 43a19.8 19.8 0 0 1 6.38 1.05c-1.46 4.83-3.77 7.95-6.38 7.95s-4.92-3.12-6.38-7.95a19.491 19.491 0 0 1 6.38-1.05z" fill="#9bc9ff"/><path d="m32 12c2.77 0 5.21 3.51 6.64 8.86a19.7 19.7 0 0 1 -6.64 1.14 21.075 21.075 0 0 1 -3-.22v-8.33a4.292 4.292 0 0 1 3-1.45z" fill="#2488ff"/><path d="m29 21.78v5.22a2.006 2.006 0 0 1 -2 2h-18a2.006 2.006 0 0 1 -2-2v-14a2.006 2.006 0 0 1 2-2h18a1.991 1.991 0 0 1 1.85 1.25 1.9 1.9 0 0 1 .15.75z" fill="#ffc477"/><path d="m25.62 44.05c1.46 4.83 3.77 7.95 6.38 7.95a19.848 19.848 0 0 1 -12.63-4.5 19.883 19.883 0 0 1 6.25-3.45z" fill="#2488ff"/><path d="m25.62 44.05a19.883 19.883 0 0 0 -6.25 3.45 19.572 19.572 0 0 1 -3.26-3.36 5.9 5.9 0 0 0 .89-3.14 6.015 6.015 0 0 0 -4.75-5.87 18.98 18.98 0 0 1 -.25-3.13h12a42.59 42.59 0 0 0 1.62 12.05z" fill="#9bc9ff"/><path d="m25 9v2h-16a2.006 2.006 0 0 0 -2 2v14a2.006 2.006 0 0 0 2 2h-4a2.006 2.006 0 0 1 -2-2v-22a2.006 2.006 0 0 1 2-2h4a2.015 2.015 0 0 1 2 2 2.006 2.006 0 0 0 2 2h10a2.006 2.006 0 0 1 2 2z" fill="#ff7956"/><path d="m12.23 29h11.86q-.09 1.47-.09 3h-12a19.8 19.8 0 0 1 .23-3z" fill="#2488ff"/><path d="m19 49v12h-16v-12a2.006 2.006 0 0 1 2-2h12a2.006 2.006 0 0 1 2 2z" fill="#b2fa09"/><path d="m17 41a5.9 5.9 0 0 1 -.89 3.14 6 6 0 1 1 -5.11-9.14 5.7 5.7 0 0 1 1.25.13 6.015 6.015 0 0 1 4.75 5.87z" fill="#ffc477"/><path d="m62 29v-12a3 3 0 0 0 -3-3h-1.111a7 7 0 1 0 -9.778 0h-1.111a2.992 2.992 0 0 0 -2.407 1.226 20.984 20.984 0 0 0 -12.593-4.226 20.586 20.586 0 0 0 -2.631.18 2.988 2.988 0 0 0 -2.369-1.18h-1v-1a3 3 0 0 0 -3-3h-10a1 1 0 0 1 -1-1 3 3 0 0 0 -3-3h-4a3 3 0 0 0 -3 3v22a3 3 0 0 0 3 3h6.11c-.066.668-.11 1.337-.11 2 0 .683.043 1.35.106 2.005-.036 0-.07-.005-.106-.005a6.993 6.993 0 0 0 -4.889 12h-1.111a3 3 0 0 0 -3 3v12a1 1 0 0 0 1 1h16a1 1 0 0 0 1-1v-11.76a20.989 20.989 0 0 0 22 1.218v10.542a1 1 0 0 0 1 1h18a1 1 0 0 0 1-1v-18a1 1 0 0 0 -.293-.707l-6-6a1 1 0 0 0 -.707-.293h-2.383a21.2 21.2 0 0 0 .383-4c0-.663-.044-1.332-.11-2h8.11a1 1 0 0 0 1-1zm-14-20a5 5 0 1 1 5 5 5.006 5.006 0 0 1 -5-5zm-16 42c-1.81 0-3.729-2.344-5.1-6.289a18.724 18.724 0 0 1 10.2 0c-1.369 3.942-3.289 6.289-5.1 6.289zm-4.315-.489a18.735 18.735 0 0 1 -6.664-3 18.972 18.972 0 0 1 3.985-2.158 17.572 17.572 0 0 0 2.679 5.158zm4.315-8.511a20.911 20.911 0 0 0 -5.69.8 41.424 41.424 0 0 1 -1.289-9.8h13.958a41.408 41.408 0 0 1 -1.287 9.793 20.979 20.979 0 0 0 -5.692-.793zm-6.97-11c.007-.335.016-.668.03-1h1.94a3 3 0 0 0 3-3v-4.106c.674.063 1.344.106 2 .106a20.934 20.934 0 0 0 5.92-.869 42.453 42.453 0 0 1 1.059 8.869zm6.97-10a19.781 19.781 0 0 1 -2-.116v-6.984a3.11 3.11 0 0 1 2-.9c1.945 0 4.015 2.708 5.4 7.2a18.954 18.954 0 0 1 -5.4.8zm4.341-7.477a19.011 19.011 0 0 1 7.28 3.477 18.933 18.933 0 0 1 -4.346 2.528 18.745 18.745 0 0 0 -2.934-6.005zm-32.341 13.477v-22a1 1 0 0 1 1-1h4a1 1 0 0 1 1 1 3 3 0 0 0 3 3h10a1 1 0 0 1 1 1v1h-15a3 3 0 0 0 -3 3v14a2.966 2.966 0 0 0 .184 1h-1.184a1 1 0 0 1 -1-1zm4 0v-14a1 1 0 0 1 1-1h18a1 1 0 0 1 1 1v14a1 1 0 0 1 -1 1h-18a1 1 0 0 1 -1-1zm15.06 3c-.013.333-.023.665-.03 1h-9.991c.018-.334.046-.666.082-1zm-10.021 3h9.982a43.163 43.163 0 0 0 1.4 10.439 20.981 20.981 0 0 0 -5.012 2.786 19.336 19.336 0 0 1 -2.1-2.2 6.974 6.974 0 0 0 -4.143-9.679c-.066-.441-.104-.89-.127-1.346zm3.091 12.747c.074.086.154.168.23.253h-.471c.084-.081.161-.168.241-.253zm-10.13-4.747a5 5 0 1 1 5 5 5.006 5.006 0 0 1 -5-5zm12 19h-14v-11a1 1 0 0 1 1-1h12a1 1 0 0 1 1 1zm18.326-9.5a17.627 17.627 0 0 0 2.674-5.158 18.959 18.959 0 0 1 3 1.519v1.279a18.832 18.832 0 0 1 -5.674 2.36zm7.674 9.5v-22h10v5a1 1 0 0 0 1 1h5v16zm12-20.586 2.586 2.586h-2.586zm-13-3.414a1 1 0 0 0 -1 1v7.543a20.869 20.869 0 0 0 -2.414-1.123 43.189 43.189 0 0 0 1.393-10.42h9.99a19.155 19.155 0 0 1 -.4 3zm7.961-5h-9.982a44.2 44.2 0 0 0 -1.164-9.531 20.989 20.989 0 0 0 4.185-2.252v9.783a1 1 0 0 0 1 1h5.879c.036.334.064.666.082 1zm9.039-3h-14v-11a1 1 0 0 1 1-1h12a1 1 0 0 1 1 1z"/><path d="m48 48h8v2h-8z"/><path d="m48 54h8v2h-8z"/></svg>